# xmcd CD database file
#
# Track frame offsets:
#	182
#	11902
#	24375
#	34855
#	45812
#	56590
#	71095
#	81877
#	92225
#	104635
#	116335
#	129200
#	141240
#	154772
#	165642
#	176015
#
# Disc length: 2542 seconds
#
# Revision: 2
# Processed by: cddbd v1.5.1PL0 Copyright (c) Steve Scherf et al.
# Submitted via: CDex 1.51
#
DISCID=d009ec10
DTITLE=Patsy Cline and Dottie West - The Late And The Great Cline and West
DYEAR=1992
DGENRE=Country
TTITLE0=Walking After Midnight
TTITLE1=Poor Man's Roses
TTITLE2=Lovesick Blues
TTITLE3=There He Goes
TTITLE4=I Don't Wanna
TTITLE5=Then You'll Know
TTITLE6=I Can See An Angel
TTITLE7=Pick Me Up On Your Way Down
TTITLE8=Crazy
TTITLE9=Heartbreak U.S.A
TTITLE10=I Fall To Pieces
TTITLE11=Angel On Paper
TTITLE12=She's Got You
TTITLE13=The Hand That You're Holding
TTITLE14=Walkin' In The Dark
TTITLE15=Big John
EXTD=YEAR: 1992
EXTT0=
EXTT1=
EXTT2=
EXTT3=
EXTT4=
EXTT5=
EXTT6=
EXTT7=
EXTT8=
EXTT9=
EXTT10=
EXTT11=
EXTT12=
EXTT13=
EXTT14=
EXTT15=
PLAYORDER=
